<svg width="26" height="31" viewBox="0 0 26 31" fill="none" xmlns="http://www.w3.org/2000/svg">
<path d="M25.4559 0H0.546264C0.401386 0 0.262442 0.0567033 0.159997 0.157636C0.0575527 0.258568 0 0.395462 0 0.538202V24.9467C7.80297e-05 25.0447 0.0272848 25.1408 0.0786885 25.2246C0.130092 25.3084 0.203743 25.3769 0.291705 25.4225L12.3041 30.825C12.5185 30.9398 12.7587 31 13.0027 31C13.2468 31 13.487 30.9398 13.7014 30.825L25.7127 25.4225C25.7993 25.3763 25.8716 25.3079 25.922 25.2246C25.9724 25.1412 25.999 25.0459 25.9989 24.9489L25.9803 15.3689H19.1094L19.128 20.2719C19.1282 20.3305 19.1112 20.3879 19.079 20.4372C19.0468 20.4865 19.0008 20.5255 18.9466 20.5496L13.4359 23.0028C13.3035 23.0756 13.1544 23.1139 13.0027 23.1139C12.8511 23.1139 12.7019 23.0756 12.5695 23.0028L7.15934 20.5529C7.10588 20.5286 7.06059 20.4897 7.02883 20.4409C6.99708 20.3921 6.98019 20.3353 6.98017 20.2773V7.29156C6.98017 7.19536 7.01896 7.10309 7.088 7.03506C7.15705 6.96703 7.2507 6.92882 7.34835 6.92882H18.7871C18.8848 6.92882 18.9784 6.96703 19.0475 7.03506C19.1165 7.10309 19.1553 7.19536 19.1553 7.29156V10.9901H26V0.534973C25.9991 0.393165 25.9415 0.257424 25.8396 0.157249C25.7377 0.0570752 25.5999 0.000564695 25.4559 0Z" fill="white"/>
</svg>
