<svg width="291" height="52" viewBox="0 0 291 52" fill="none" xmlns="http://www.w3.org/2000/svg">
<path d="M47.7252 44.0043C42.6292 48.8611 35.9492 51.2897 27.6849 51.2897C19.4209 51.2897 12.7405 48.8611 7.64453 44.0043C2.54818 39.1471 0 33.0277 0 25.6449C0 18.3271 2.54818 12.2397 7.64453 7.38286C12.7409 2.46117 19.4209 0.000488281 27.6852 0.000488281C35.9492 0.000488281 42.6292 2.46117 47.7252 7.38286C52.8216 12.2397 55.3697 18.3271 55.3697 25.6449C55.3697 33.0273 52.8216 39.1471 47.7252 44.0043ZM27.6849 38.5643C31.6795 38.5643 34.9506 37.3341 37.4984 34.8731C40.1155 32.3476 41.4241 29.2713 41.4241 25.6449C41.4241 21.9538 40.15 18.8775 37.6018 16.4168C35.0536 13.891 31.7485 12.6284 27.6849 12.6284C23.6216 12.6284 20.3161 13.891 17.7679 16.4168C15.2198 18.8775 13.946 21.9538 13.946 25.6449C13.946 29.3361 15.2201 32.4124 17.7679 34.8731C20.3161 37.3341 23.6216 38.5643 27.6849 38.5643Z" fill="white"/>
<path fill-rule="evenodd" clip-rule="evenodd" d="M88.9766 0L116.611 25.6455V51.2909L88.9766 25.6455V0Z" fill="white"/>
<path fill-rule="evenodd" clip-rule="evenodd" d="M89.1325 25.6455L61.498 0V25.6455L89.1325 51.2909V25.6455Z" fill="white"/>
<path d="M271.293 25.2563L290.713 49.8324H272.842L262.099 35.5529L251.666 49.8324H234.104L253.525 25.5477L234.311 1.45728H252.182L262.822 15.8337L273.152 1.45728H289.577L271.293 25.2563Z" fill="white"/>
<path d="M207.943 0C216.482 0 223.231 2.84935 228.19 8.54838C233.148 14.2471 235.146 21.4032 234.181 30.0161H195.34C195.753 32.6061 197.062 34.8081 199.266 36.6214C201.538 38.3699 204.396 39.309 207.84 39.4384C210.25 39.568 212.488 39.1794 214.554 38.2727C216.689 37.3015 218.204 36.0386 219.1 34.4843H233.665C232.012 39.7946 228.844 43.9393 224.161 46.9183C219.478 49.8325 214.038 51.2896 207.84 51.2896C199.507 51.2896 192.964 48.8286 188.213 43.9069C183.461 38.9204 181.085 32.833 181.085 25.6448C181.085 18.3918 183.599 12.3044 188.626 7.38271C193.722 2.46101 200.161 0.000334211 207.943 0.000334211V0ZM215.587 13.8912C213.452 12.4665 210.87 11.7543 207.84 11.7543C204.81 11.7543 202.158 12.4989 199.886 13.9884C197.682 15.4131 196.201 17.3558 195.443 19.8168H220.029C219.272 17.2913 217.791 15.3158 215.587 13.8915V13.8912ZM153.807 0.0982534C160.142 0.0982534 165.135 2.00885 168.785 5.8297C172.435 9.65022 174.26 14.993 174.26 21.8577V49.8335H160.315V23.8004C160.315 20.4327 159.316 17.7775 157.319 15.8348C155.322 13.8922 152.808 12.9207 149.778 12.9207C146.541 12.9207 143.786 14.0215 141.514 16.2235C139.241 18.3603 138.105 21.2097 138.105 24.7715V49.8335H124.159V1.45809H137.692V7.28646H138.208C141.858 2.4941 147.058 0.0982534 153.807 0.0982534Z" fill="white"/>
</svg>
